HIERARCHY
ROOT Hips
{
	OFFSET 0.000000 0.000000 0.000000 
	CHANNELS 6 Xposition Yposition Zposition Yrotation Zrotation Xrotation 
	JOINT Lumbar
	{
		OFFSET 0.000000 0.000000 0.000000 
		CHANNELS 3 Zrotation Xrotation Yrotation
		JOINT Neck
		{
			OFFSET 0.000000 0.445665 0.000000 
			CHANNELS 3 Zrotation Xrotation Yrotation
			End Site
			{
				OFFSET 0.000000 0.227535 0.000000 
			}
		}
		JOINT RightShoulder
		{
			OFFSET 0.019635 0.377685 0.194865 
			CHANNELS 3 Zrotation Xrotation Yrotation
			JOINT RightElbow
			{
				OFFSET 0.000000 -0.243375 0.000000 
				CHANNELS 2 Zrotation Yrotation
				JOINT RightWrist
				{
					OFFSET 0.000000 -0.264825 0.000000 
					CHANNELS 2 Zrotation Xrotation
					End Site
					{
						OFFSET 0.006600 -0.176220 0.000990 
					}
				}
			}
		}
		JOINT LeftShoulder
		{
			OFFSET 0.019635 0.377685 -0.194865 
			CHANNELS 3 Zrotation Xrotation Yrotation
			JOINT LeftElbow
			{
				OFFSET 0.000000 -0.243375 0.000000 
				CHANNELS 2 Zrotation Yrotation
				JOINT LeftWrist
				{
					OFFSET 0.000000 -0.264825 0.000000 
					CHANNELS 2 Zrotation Xrotation
					End Site
					{
						OFFSET 0.006600 -0.176220 -0.000990 
					}
				}
			}
		}
	}
	JOINT RightHip
	{
		OFFSET 0.052140 -0.069960 0.075570 
		CHANNELS 3 Zrotation Xrotation Yrotation
		JOINT RightKnee
		{
			OFFSET 0.000000 -0.402270 0.000000 
			CHANNELS 1 Zrotation
			JOINT RightAnkle
			{
				OFFSET 0.000000 -0.404085 0.000000 
				CHANNELS 3 Zrotation Xrotation Yrotation
				End Site
				{
					OFFSET 0.204105 -0.089430 0.008415 
				}
			}
		}
	}
	JOINT LeftHip
	{
		OFFSET 0.052140 -0.069960 -0.075570 
		CHANNELS 3 Zrotation Xrotation Yrotation
		JOINT LeftKnee
		{
			OFFSET 0.000000 -0.402270 0.000000 
			CHANNELS 1 Zrotation
			JOINT LeftAnkle
			{
				OFFSET 0.000000 -0.404085 0.000000 
				CHANNELS 3 Zrotation Xrotation Yrotation
				End Site
				{
					OFFSET 0.204105 -0.089430 -0.008415 
				}
			}
		}
	}
}
MOTION
Frames: 33
Frame Time: 0.02
-0.638 0.00576 -0.004 -181.73489 -29.69912 -3.52938 42.34911 1.0334 2.22921 -8.36872 12.75758 -0.83078 135.73107 -29.7818 -89.8668 5.32879 59.18733 -7.5723 7.43599 -22.50264 138.27654 -4.339 8.67564 -71.09771 -21.87248 0.57739 29.61766 -5.87827 -3.2726 -14.57568 -11.47604 -4.88249 -3.50153 24.93752 5.73767 4.1707 -17.30377 -8.4361 4.47756 3.11194
-0.63712 0.00574 -0.00661 -183.53284 -29.81179 -3.65282 42.28136 1.08963 2.15307 -8.29645 12.82729 -0.83078 135.51215 -29.5959 -90.18065 5.32832 57.83674 -7.89222 7.50516 -22.55329 138.04681 -4.14468 8.77567 -71.13921 -21.84827 0.57697 30.28119 -5.61017 -2.58114 -14.96852 -11.5577 -5.00051 -3.57773 24.89347 5.72481 4.50947 -17.24641 -8.57849 4.60329 3.1889
-0.63634 0.00584 -0.00953 -185.31943 -29.87598 -3.78009 42.18117 1.15167 2.09006 -8.26987 12.9107 -0.83078 135.32554 -29.42352 -90.05849 5.32864 56.2897 -8.2457 7.53098 -22.60391 137.8038 -3.56794 8.9054 -71.3101 -21.83106 0.67118 30.88732 -5.29233 -1.83013 -15.43729 -11.74196 -5.16567 -3.68682 24.76722 5.72081 4.79651 -17.13329 -8.74965 4.72487 3.26577
-0.63554 0.00588 -0.01235 -187.09291 -29.95448 -3.90274 42.09032 1.20705 2.00973 -8.23426 12.99025 -0.83078 135.13255 -29.27395 -89.25322 5.33009 55.07518 -8.49438 7.50128 -22.64829 137.56881 -3.08679 9.0329 -71.47933 -21.82966 0.73598 31.50505 -5.00435 -1.16722 -15.86995 -11.88295 -5.30484 -3.77854 24.66697 5.71389 5.09801 -17.04305 -8.90762 4.84721 3.34213
-0.63463 0.00595 -0.01499 -188.94917 -30.06244 -4.03763 42.01965 1.28018 1.98131 -8.15509 13.06111 -0.83078 134.89885 -29.00301 -91.90474 5.32565 52.8673 -9.10104 7.76858 -22.7176 137.32499 -2.90789 9.11715 -71.42686 -21.75395 0.74595 32.18254 -4.6856 -0.24867 -16.3104 -12.01157 -5.4634 -3.88075 24.611 5.70084 5.4363 -16.96347 -9.06619 4.97521 3.42127
-0.63397 0.00597 -0.01808 -190.62707 -30.10042 -4.14793 41.90189 1.31735 1.84621 -8.17203 13.15185 -0.83078 134.76373 -28.98378 -87.56917 5.33313 52.64539 -8.99325 7.43231 -22.73792 137.09877 -2.04284 9.29347 -71.84272 -21.8266 0.88765 32.72223 -4.4183 0.15662 -16.74942 -12.18774 -5.59265 -3.96866 24.44619 5.70385 5.68604 -16.84787 -9.23055 5.08998 3.49439
-0.63397 0.00581 -0.02219 -191.82839 -29.93581 -4.18906 41.6418 1.25489 1.41454 -8.48314 13.30645 -0.83078 134.84255 -29.7066 -61.32927 5.37798 58.24806 -6.70968 5.22006 -22.59286 136.89616 0.91616 9.75957 -73.72786 -22.38056 1.41938 32.8974 -4.3157 -0.92268 -17.20098 -12.49372 -5.63035 -4.01121 23.98145 5.74174 5.70636 -16.65196 -9.40077 5.1703 3.55146
-0.63423 0.0056 -0.02675 -192.84757 -29.70635 -4.20544 41.33932 1.15583 0.87392 -8.882 13.47833 -0.83078 135.02771 -30.67413 -28.5433 5.43399 65.80097 -3.74046 2.43997 -22.40348 136.71578 4.4993 10.30976 -76.04223 -23.07101 2.07188 32.9353 -4.26451 -2.51072 -17.64216 -12.83986 -5.63679 -4.03786 23.41339 5.79716 5.63937 -16.42047 -9.57636 5.23708 3.6023
-0.6344 0.00542 -0.03118 -193.94085 -29.52094 -4.23323 41.0696 1.07261 0.38231 -9.21366 13.63414 -0.83078 135.19907 -31.49628 -0.58832 5.48175 72.26772 -1.21592 0.06805 -22.25455 136.54461 7.60243 10.79267 -78.02226 -23.64971 2.63643 33.03556 -4.18345 -3.83219 -18.06559 -13.15191 -5.65691 -4.07033 22.90639 5.8492 5.61061 -16.20199 -9.75144 5.30929 3.65563
-0.63444 0.00519 -0.03532 -195.07024 -29.27323 -4.26009 40.74173 0.99263 -0.10517 -9.66074 13.82486 -0.83079 135.23121 -32.46018 35.0575 5.54266 79.56999 1.86042 -2.92652 -22.0218 136.29528 11.54123 11.39723 -80.58981 -24.43441 3.34212 33.13568 -4.12928 -5.3025 -18.58698 -13.53353 -5.68076 -4.10976 22.33914 5.88137 5.58501 -15.99593 -9.91932 5.38461 3.71053
-0.63481 0.00505 -0.04017 -196.08152 -29.13934 -4.28343 40.52538 0.89756 -0.62919 -9.88961 13.94712 -0.83079 135.57133 -33.19042 56.4349 5.57917 85.5996 3.96186 -4.77429 -21.95075 136.20946 13.8911 11.77062 -82.04017 -24.82758 3.78344 33.20198 -4.03049 -6.58231 -18.90026 -13.77953 -5.68896 -4.13065 21.87114 5.95999 5.53417 -15.75499 -10.10318 5.45004 3.76055
-0.63599 0.00516 -0.0468 -196.80996 -29.34582 -4.29895 40.62685 0.76608 -1.21042 -9.47754 13.87351 -0.83079 136.79454 -33.18424 35.05659 5.54257 87.61359 3.10573 -3.17934 -22.35707 136.61049 11.6274 11.46236 -80.2483 -24.06132 3.44629 33.22828 -3.80914 -7.23046 -18.64659 -13.63104 -5.65987 -4.10246 21.72668 6.15362 5.42302 -15.43806 -10.3293 5.49364 3.79987
-0.6375 0.00537 -0.05415 -197.42664 -29.66727 -4.31242 40.84207 0.62134 -1.82716 -8.84607 13.73099 -0.83079 138.31289 -32.94005 -0.59016 5.48158 88.2798 1.26218 -0.43556 -22.92372 137.16793 7.75632 10.92269 -77.32875 -22.90473 2.84205 33.22194 -3.53911 -7.6665 -18.1828 -13.34584 -5.61612 -4.05628 21.68143 6.39477 5.29169 -15.08561 -10.57141 5.52737 3.83429
-0.63888 0.00554 -0.06121 -198.09469 -29.92988 -4.32965 41.00598 0.48507 -2.43986 -8.32552 13.62142 -0.83079 139.65753 -32.82556 -28.54587 5.43374 89.58643 -0.06365 1.69197 -23.4041 137.62685 4.66537 10.5037 -74.95616 -21.95619 2.37186 33.2178 -3.28273 -8.18709 -17.811 -13.12971 -5.58005 -4.0194 21.57548 6.62034 5.17811 -14.74176 -10.8063 5.56418 3.87014
-0.64017 0.00568 -0.06812 -198.75179 -30.2187 -4.33453 41.16762 0.33722 -3.00842 -7.75947 13.50483 -0.83079 141.17314 -32.62951 -61.33311 5.37762 90.86433 -1.65242 4.19515 -23.94037 138.20164 1.38074 10.02203 -72.44348 -20.88273 1.85205 33.26196 -3.06305 -8.77382 -17.45233 -12.88672 -5.5389 -3.97745 21.53238 6.8222 5.02645 -14.42748 -11.04076 5.6064 3.9091
-0.64172 0.0059 -0.07551 -199.41023 -30.4802 -4.36442 41.36049 0.21083 -3.67199 -7.23648 13.38721 -0.83079 142.40117 -32.5426 -87.57348 5.33274 91.83003 -2.94243 6.19864 -24.39782 138.57287 -1.88272 9.61504 -69.96122 -19.97526 1.37109 33.19983 -2.75572 -9.1678 -17.01824 -12.66546 -5.5049 -3.94171 21.38254 7.08317 4.94891 -14.04491 -11.28037 5.63528 3.94057
-0.64402 0.00635 -0.08409 -200.0775 -30.64597 -4.46839 41.62103 0.1468 -4.62231 -6.8729 13.2749 -0.83079 142.76329 -32.82292 -91.90705 5.32547 92.4884 -3.12143 6.52251 -24.60825 138.33576 -4.76364 9.46859 -67.73174 -19.61856 1.05738 32.85022 -2.20949 -9.06089 -16.4125 -12.54767 -5.49726 -3.93004 20.92197 7.50697 5.09481 -13.47444 -11.52562 5.62895 3.95184
-0.64655 0.00686 -0.09313 -200.75512 -30.779 -4.59675 41.90749 0.105 -5.66003 -6.56264 13.16507 -0.83079 142.82504 -33.21848 -89.25442 5.3302 92.83235 -2.97677 6.31034 -24.73259 137.88994 -7.5577 9.40514 -65.5886 -19.44221 0.79222 32.39568 -1.57823 -8.76816 -15.74091 -12.45448 -5.49688 -3.92486 20.35043 7.9864 5.31381 -12.84007 -11.7763 5.60969 3.95588
-0.64893 0.00731 -0.10197 -201.44342 -30.92239 -4.71128 42.17634 0.05332 -6.63585 -6.23563 13.06029 -0.83079 143.02369 -33.55525 -90.05618 5.32899 93.15639 -3.01375 6.35854 -24.88959 137.54459 -10.34976 9.30494 -63.47531 -19.18471 0.50797 31.99132 -0.99119 -8.57194 -15.10918 -12.34308 -5.49137 -3.91517 19.82365 8.43292 5.49079 -12.23794 -12.02761 5.597 3.96377
-0.65153 0.00789 -0.1108 -202.06245 -31.08938 -4.83786 42.47406 0.00033 -7.70771 -5.86777 12.92875 -0.83079 143.23166 -33.91166 -90.17642 5.32897 94.10112 -2.94162 6.37509 -25.07781 137.18035 -13.37398 9.19321 -61.03548 -18.91049 0.20258 31.57577 -0.37837 -8.31946 -14.42815 -12.25618 -5.49317 -3.91148 19.32055 8.91341 5.70441 -11.61311 -12.26664 5.58126 3.96925
-0.65371 0.00823 -0.11975 -202.83007 -31.19724 -4.94448 42.71593 -0.04463 -8.59846 -5.60257 12.85227 -0.83079 143.34424 -34.25675 -89.86615 5.32965 93.72188 -3.0037 6.31612 -25.18051 136.80466 -15.87144 9.1275 -59.30564 -18.7187 -0.04463 31.15833 0.19962 -8.14055 -13.83697 -12.12642 -5.4815 -3.89702 18.74511 9.33562 5.85903 -11.03079 -12.53203 5.56864 3.97791
-0.6547 0.00784 -0.1289 -204.00295 -31.15499 -4.99588 42.79986 -0.07147 -8.97873 -5.59257 12.94553 -0.83079 143.27282 -34.55021 -90.0643 5.32934 89.53995 -3.54128 6.16859 -25.05001 136.44076 -16.93633 9.17587 -59.5699 -18.71543 -0.13368 30.76756 0.66617 -8.23064 -13.51077 -11.86816 -5.43224 -3.85163 17.95796 9.58454 5.83638 -10.49838 -12.87102 5.57043 3.99876
-0.65524 0.00721 -0.13813 -205.32577 -31.05263 -5.0252 42.8255 -0.09119 -9.17151 -5.68883 13.09065 -0.83079 143.1139 -34.82784 -90.00042 5.32944 84.08392 -4.2156 5.95992 -24.8391 136.07336 -17.46148 9.26757 -60.54388 -18.79053 -0.1657 30.37737 1.0932 -8.39933 -13.27833 -11.56738 -5.3689 -3.79514 17.10925 9.77274 5.75175 -10.02778 -13.23565 5.57531 4.02273
-0.65594 0.0067 -0.14731 -206.58258 -30.97402 -5.06092 42.87573 -0.11502 -9.44263 -5.7465 13.20081 -0.83079 142.98872 -35.10901 -89.99438 5.32946 79.36557 -4.80532 5.78084 -24.67594 135.7116 -18.23083 9.33568 -61.15918 -18.82761 -0.22938 29.9832 1.53482 -8.51848 -13.00341 -11.28948 -5.31129 -3.74363 16.31316 9.9873 5.6927 -9.58214 -13.58732 5.5772 4.0443
-0.65682 0.00612 -0.1566 -207.83196 -30.91007 -5.11316 42.93554 -0.13439 -9.74561 -5.76152 13.36065 -0.83079 142.87565 -35.41024 -90.01643 5.32942 73.96911 -5.47841 5.57623 -24.46209 135.32486 -19.02102 9.42262 -61.918 -18.8783 -0.26963 29.60167 1.99482 -8.68546 -12.72502 -10.99734 -5.25713 -3.69285 15.40684 10.20778 5.64519 -8.90568 -13.94561 5.5856 4.06995
-0.65723 0.00564 -0.16565 -209.1307 -30.80086 -5.12504 42.96046 -0.16164 -9.93683 -5.89423 13.4274 -0.83079 142.72423 -35.66352 -90.00172 5.32945 69.68232 -6.01537 5.41707 -24.3364 134.99287 -19.61767 9.48004 -62.55969 -18.92015 -0.3428 29.19453 2.40461 -8.77881 -12.47763 -10.72447 -5.19185 -3.63754 14.71991 10.40238 5.56037 -8.7313 -14.29502 5.581 4.08768
-0.65646 0.0055 -0.17409 -210.5427 -30.58902 -5.0338 42.90918 -0.21264 -9.86244 -6.28911 13.24088 -0.83079 142.45727 -35.79569 -90.00684 5.32944 68.81455 -6.13414 5.39926 -24.46808 134.80715 -20.00905 9.44134 -62.58014 -18.89028 -0.54552 28.72393 2.697 -8.60732 -12.28803 -10.51564 -5.10388 -3.57503 14.62839 10.52555 5.36567 -9.8771 -14.62227 5.54298 4.08535
-0.65524 0.00548 -0.18226 -211.99653 -30.33255 -4.90199 42.82341 -0.27189 -9.68234 -6.80512 12.95604 -0.83079 142.16226 -35.87807 -90.00711 5.32943 69.10184 -6.11384 5.43149 -24.69205 134.67918 -20.19025 9.37186 -62.47844 -18.85283 -0.7787 28.22687 2.9376 -8.36663 -12.12748 -10.3277 -5.00448 -3.50794 14.76477 10.62674 5.13847 -11.53427 -14.93759 5.49139 4.07457
-0.65422 0.00539 -0.19049 -213.42232 -30.09146 -4.78674 42.74963 -0.3273 -9.55178 -7.28996 12.70509 -0.83079 141.90164 -35.97799 -90.0056 5.32943 68.8329 -6.16516 5.44305 -24.8788 134.52905 -20.33547 9.31858 -62.51714 -18.83689 -0.98227 27.73734 3.19392 -8.18785 -11.95742 -10.12958 -4.90712 -3.44111 14.81444 10.7481 4.94133 -12.99329 -15.25327 5.44378 4.06593
-0.65321 0.00533 -0.199 -214.8918 -29.8684 -4.67879 42.69001 -0.38278 -9.40748 -7.67891 12.50054 -0.83079 141.54542 -36.09946 -90.00678 5.32942 68.64869 -6.18761 5.44425 -25.04555 134.35966 -21.00664 9.25719 -62.23314 -18.749 -1.25139 27.26595 3.48204 -7.88812 -11.77573 -9.9321 -4.82202 -3.38118 14.792 10.82656 4.68104 -14.31666 -15.59315 5.40488 4.06431
-0.65208 0.00525 -0.20685 -216.27781 -29.59867 -4.54612 42.59269 -0.44023 -9.27026 -8.29347 12.17654 -0.83079 141.38404 -36.16372 -90.00638 5.32943 68.58242 -6.23279 5.4787 -25.27344 134.24638 -20.55247 9.20524 -62.56935 -18.80626 -1.39069 26.7515 3.69196 -7.81659 -11.62302 -9.73981 -4.70959 -3.30641 14.97306 10.98725 4.54094 -16.03463 -15.87705 5.34539 4.04637
-0.65077 0.00512 -0.21304 -217.42647 -29.20661 -4.35679 42.4074 -0.50031 -9.16958 -9.51162 11.53598 -0.83079 141.75694 -36.08786 -90.00616 5.32945 68.53741 -6.39786 5.60302 -25.6786 134.25517 -16.93685 9.18214 -64.76145 -19.28115 -1.17649 26.11777 3.7 -8.44663 -11.55133 -9.54831 -4.51805 -3.1877 15.67532 11.40319 4.77928 -18.78726 -16.03015 5.22554 3.98256
-0.64937 0.00497 -0.21856 -218.48847 -28.77109 -4.14394 42.1849 -0.56211 -9.08228 -10.9486 10.78032 -0.83079 142.32839 -35.9551 -90.00598 5.32949 68.58233 -6.58606 5.75753 -26.13711 134.32176 -12.22162 9.16987 -67.55656 -19.89875 -0.82952 25.444 3.63096 -9.29859 -11.50613 -9.36309 -4.30062 -3.055 16.57225 11.89847 5.13316 -21.90328 -16.12367 5.08675 3.9032
